<svg xmlns="http://www.w3.org/2000/svg" width="2000" height="1250" viewBox="0 0 2000 1250" font-family="Inter, Arial, sans-serif"><defs>
<linearGradient id="bg" x1="0" y1="0" x2="0" y2="1">
 <stop offset="0" stop-color="#F4FBFA"/><stop offset="0.55" stop-color="#EAF4F3"/><stop offset="1" stop-color="#E2EFEE"/>
</linearGradient>
<radialGradient id="glowc" cx="50%" cy="50%" r="50%">
 <stop offset="0" stop-color="#37D6C5" stop-opacity="0.55"/><stop offset="1" stop-color="#37D6C5" stop-opacity="0"/>
</radialGradient>
<linearGradient id="screen" x1="0" y1="0" x2="1" y2="1">
 <stop offset="0" stop-color="#ffffff"/><stop offset="1" stop-color="#EEF6F5"/>
</linearGradient>
<linearGradient id="lid" x1="0" y1="0" x2="0" y2="1">
 <stop offset="0" stop-color="#3A4750"/><stop offset="1" stop-color="#2B353C"/>
</linearGradient>
<linearGradient id="wire" x1="0" y1="0" x2="1" y2="0">
 <stop offset="0" stop-color="#2BC4B4"/><stop offset="1" stop-color="#7FE9DC"/>
</linearGradient>
<filter id="soft" x="-40%" y="-40%" width="180%" height="180%">
 <feDropShadow dx="0" dy="10" stdDeviation="14" flood-color="#1f4a47" flood-opacity="0.16"/>
</filter>
<filter id="softsm" x="-50%" y="-50%" width="200%" height="200%">
 <feDropShadow dx="0" dy="6" stdDeviation="8" flood-color="#1f4a47" flood-opacity="0.18"/>
</filter>
<filter id="wireglow" x="-50%" y="-50%" width="200%" height="200%">
 <feGaussianBlur stdDeviation="3.2" result="b"/><feMerge><feMergeNode in="b"/><feMergeNode in="SourceGraphic"/></feMerge>
</filter>
</defs><ellipse cx="1000.0" cy="645.0" rx="560" ry="300" fill="none" stroke="#9fd8d1" stroke-opacity="0.30" stroke-width="2" stroke-dasharray="2 12" stroke-linecap="round"/><ellipse cx="1000.0" cy="645.0" rx="760" ry="400" fill="none" stroke="#9fd8d1" stroke-opacity="0.30" stroke-width="2" stroke-dasharray="2 12" stroke-linecap="round"/><ellipse cx="1000.0" cy="645.0" rx="940" ry="500" fill="none" stroke="#9fd8d1" stroke-opacity="0.30" stroke-width="2" stroke-dasharray="2 12" stroke-linecap="round"/><circle cx="1000.0" cy="645.0" r="430" fill="url(#glowc)"/><g><path d="M 1000.0 645.0 Q 640.0 390.0 280.0 215.0" fill="none" stroke="url(#wire)" stroke-width="4.5" stroke-opacity="0.85" stroke-linecap="round" filter="url(#wireglow)"/><circle cx="280.0" cy="215.0" r="6" fill="#2BC4B4" filter="url(#wireglow)"/><path d="M 1000.0 645.0 Q 784.0 369.4 568.0 173.9" fill="none" stroke="url(#wire)" stroke-width="4.5" stroke-opacity="0.85" stroke-linecap="round" filter="url(#wireglow)"/><circle cx="568.0" cy="173.9" r="6" fill="#2BC4B4" filter="url(#wireglow)"/><path d="M 1000.0 645.0 Q 928.0 356.7 856.0 148.4" fill="none" stroke="url(#wire)" stroke-width="4.5" stroke-opacity="0.85" stroke-linecap="round" filter="url(#wireglow)"/><circle cx="856.0" cy="148.4" r="6" fill="#2BC4B4" filter="url(#wireglow)"/><path d="M 1000.0 645.0 Q 1072.0 356.7 1144.0 148.4" fill="none" stroke="url(#wire)" stroke-width="4.5" stroke-opacity="0.85" stroke-linecap="round" filter="url(#wireglow)"/><circle cx="1144.0" cy="148.4" r="6" fill="#2BC4B4" filter="url(#wireglow)"/><path d="M 1000.0 645.0 Q 1216.0 369.4 1432.0 173.9" fill="none" stroke="url(#wire)" stroke-width="4.5" stroke-opacity="0.85" stroke-linecap="round" filter="url(#wireglow)"/><circle cx="1432.0" cy="173.9" r="6" fill="#2BC4B4" filter="url(#wireglow)"/><path d="M 1000.0 645.0 Q 1360.0 390.0 1720.0 215.0" fill="none" stroke="url(#wire)" stroke-width="4.5" stroke-opacity="0.85" stroke-linecap="round" filter="url(#wireglow)"/><circle cx="1720.0" cy="215.0" r="6" fill="#2BC4B4" filter="url(#wireglow)"/><path d="M 1000.0 645.0 Q 590.0 505.0 180.0 445.0" fill="none" stroke="url(#wire)" stroke-width="4.5" stroke-opacity="0.85" stroke-linecap="round" filter="url(#wireglow)"/><circle cx="180.0" cy="445.0" r="6" fill="#2BC4B4" filter="url(#wireglow)"/><path d="M 1000.0 645.0 Q 562.5 585.0 125.0 605.0" fill="none" stroke="url(#wire)" stroke-width="4.5" stroke-opacity="0.85" stroke-linecap="round" filter="url(#wireglow)"/><circle cx="125.0" cy="605.0" r="6" fill="#2BC4B4" filter="url(#wireglow)"/><path d="M 1000.0 645.0 Q 590.0 665.0 180.0 765.0" fill="none" stroke="url(#wire)" stroke-width="4.5" stroke-opacity="0.85" stroke-linecap="round" filter="url(#wireglow)"/><circle cx="180.0" cy="765.0" r="6" fill="#2BC4B4" filter="url(#wireglow)"/><path d="M 1000.0 645.0 Q 1410.0 505.0 1820.0 445.0" fill="none" stroke="url(#wire)" stroke-width="4.5" stroke-opacity="0.85" stroke-linecap="round" filter="url(#wireglow)"/><circle cx="1820.0" cy="445.0" r="6" fill="#2BC4B4" filter="url(#wireglow)"/><path d="M 1000.0 645.0 Q 1437.5 585.0 1875.0 605.0" fill="none" stroke="url(#wire)" stroke-width="4.5" stroke-opacity="0.85" stroke-linecap="round" filter="url(#wireglow)"/><circle cx="1875.0" cy="605.0" r="6" fill="#2BC4B4" filter="url(#wireglow)"/><path d="M 1000.0 645.0 Q 1410.0 665.0 1820.0 765.0" fill="none" stroke="url(#wire)" stroke-width="4.5" stroke-opacity="0.85" stroke-linecap="round" filter="url(#wireglow)"/><circle cx="1820.0" cy="765.0" r="6" fill="#2BC4B4" filter="url(#wireglow)"/><path d="M 1000.0 645.0 Q 590.0 820.0 180.0 1075.0" fill="none" stroke="url(#wire)" stroke-width="4.5" stroke-opacity="0.85" stroke-linecap="round" filter="url(#wireglow)"/><circle cx="180.0" cy="1075.0" r="6" fill="#2BC4B4" filter="url(#wireglow)"/><path d="M 1000.0 645.0 Q 692.5 831.5 385.0 1098.0" fill="none" stroke="url(#wire)" stroke-width="4.5" stroke-opacity="0.85" stroke-linecap="round" filter="url(#wireglow)"/><circle cx="385.0" cy="1098.0" r="6" fill="#2BC4B4" filter="url(#wireglow)"/><path d="M 1000.0 645.0 Q 795.0 841.2 590.0 1117.4" fill="none" stroke="url(#wire)" stroke-width="4.5" stroke-opacity="0.85" stroke-linecap="round" filter="url(#wireglow)"/><circle cx="590.0" cy="1117.4" r="6" fill="#2BC4B4" filter="url(#wireglow)"/><path d="M 1000.0 645.0 Q 897.5 847.7 795.0 1130.4" fill="none" stroke="url(#wire)" stroke-width="4.5" stroke-opacity="0.85" stroke-linecap="round" filter="url(#wireglow)"/><circle cx="795.0" cy="1130.4" r="6" fill="#2BC4B4" filter="url(#wireglow)"/><path d="M 1000.0 645.0 Q 1000.0 850.0 1000.0 1135.0" fill="none" stroke="url(#wire)" stroke-width="4.5" stroke-opacity="0.85" stroke-linecap="round" filter="url(#wireglow)"/><circle cx="1000.0" cy="1135.0" r="6" fill="#2BC4B4" filter="url(#wireglow)"/><path d="M 1000.0 645.0 Q 1102.5 847.7 1205.0 1130.4" fill="none" stroke="url(#wire)" stroke-width="4.5" stroke-opacity="0.85" stroke-linecap="round" filter="url(#wireglow)"/><circle cx="1205.0" cy="1130.4" r="6" fill="#2BC4B4" filter="url(#wireglow)"/><path d="M 1000.0 645.0 Q 1205.0 841.2 1410.0 1117.4" fill="none" stroke="url(#wire)" stroke-width="4.5" stroke-opacity="0.85" stroke-linecap="round" filter="url(#wireglow)"/><circle cx="1410.0" cy="1117.4" r="6" fill="#2BC4B4" filter="url(#wireglow)"/><path d="M 1000.0 645.0 Q 1307.5 831.5 1615.0 1098.0" fill="none" stroke="url(#wire)" stroke-width="4.5" stroke-opacity="0.85" stroke-linecap="round" filter="url(#wireglow)"/><circle cx="1615.0" cy="1098.0" r="6" fill="#2BC4B4" filter="url(#wireglow)"/><path d="M 1000.0 645.0 Q 1410.0 820.0 1820.0 1075.0" fill="none" stroke="url(#wire)" stroke-width="4.5" stroke-opacity="0.85" stroke-linecap="round" filter="url(#wireglow)"/><circle cx="1820.0" cy="1075.0" r="6" fill="#2BC4B4" filter="url(#wireglow)"/></g><g><path d="M 640 803 L 1360 803 L 1430 865 L 570 865 Z" fill="#C9D4D6" filter="url(#soft)"/><path d="M 640 803 L 1360 803 L 1430 865 L 570 865 Z" fill="#D9E2E3"/><rect x="930" y="813" width="140" height="14" rx="7" fill="#B6C2C4"/><rect x="720" y="435" width="560" height="360" rx="26" fill="url(#lid)" filter="url(#soft)"/><rect x="738" y="453" width="524" height="324" rx="16" fill="url(#screen)"/><rect x="738" y="453" width="78" height="324" rx="16" fill="#EAF3F2"/><rect x="760" y="487" width="34" height="10" rx="5" fill="#BBD7D3"/><rect x="760" y="533" width="34" height="10" rx="5" fill="#BBD7D3"/><rect x="760" y="579" width="34" height="10" rx="5" fill="#BBD7D3"/><rect x="760" y="625" width="34" height="10" rx="5" fill="#BBD7D3"/><circle cx="1030" cy="615" r="120" fill="url(#glowc)"/><rect x="964" y="549" width="132" height="132" rx="30" fill="#F36B4A"/><g transform="translate(984.0,569.0) scale(3.833)"><path d="m4.7144 15.9555 4.7174-2.6471.079-.2307-.079-.1275h-.2307l-.7893-.0486-2.6956-.0729-2.3375-.0971-2.2646-.1214-.5707-.1215-.5343-.7042.0546-.3522.4797-.3218.686.0608 1.5179.1032 2.2767.1578 1.6514.0972 2.4468.255h.3886l.0546-.1579-.1336-.0971-.1032-.0972L6.973 9.8356l-2.55-1.6879-1.3356-.9714-.7225-.4918-.3643-.4614-.1578-1.0078.6557-.7225.8803.0607.2246.0607.8925.686 1.9064 1.4754 2.4893 1.8336.3643.3035.1457-.1032.0182-.0728-.164-.2733-1.3539-2.4467-1.445-2.4893-.6435-1.032-.17-.6194c-.0607-.255-.1032-.4674-.1032-.7285L6.287.1335 6.6997 0l.9957.1336.419.3642.6192 1.4147 1.0018 2.2282 1.5543 3.0296.4553.8985.2429.8318.091.255h.1579v-.1457l.1275-1.706.2368-2.0947.2307-2.6957.0789-.7589.3764-.9107.7468-.4918.5828.2793.4797.686-.0668.4433-.2853 1.8517-.5586 2.9021-.3643 1.9429h.2125l.2429-.2429.9835-1.3053 1.6514-2.0643.7286-.8196.85-.9046.5464-.4311h1.0321l.759 1.1293-.34 1.1657-1.0625 1.3478-.8804 1.1414-1.2628 1.7-.7893 1.36.0729.1093.1882-.0183 2.8535-.607 1.5421-.2794 1.8396-.3157.8318.3886.091.3946-.3278.8075-1.967.4857-2.3072.4614-3.4364.8136-.0425.0304.0486.0607 1.5482.1457.6618.0364h1.621l3.0175.2247.7892.522.4736.6376-.079.4857-1.2142.6193-1.6393-.3886-3.825-.9107-1.3113-.3279h-.1822v.1093l1.0929 1.0686 2.0035 1.8092 2.5075 2.3314.1275.5768-.3218.4554-.34-.0486-2.2039-1.6575-.85-.7468-1.9246-1.621h-.1275v.17l.4432.6496 2.3436 3.5214.1214 1.0807-.17.3521-.6071.2125-.6679-.1214-1.3721-1.9246L14.38 17.959l-1.1414-1.9428-.1397.079-.674 7.2552-.3156.3703-.7286.2793-.6071-.4614-.3218-.7468.3218-1.4753.3886-1.9246.3157-1.53.2853-1.9004.17-.6314-.0121-.0425-.1397.0182-1.4328 1.9672-2.1796 2.9446-1.7243 1.8456-.4128.164-.7164-.3704.0667-.6618.4008-.5889 2.386-3.0357 1.4389-1.882.929-1.0868-.0062-.1579h-.0546l-6.3385 4.1164-1.1293.1457-.4857-.4554.0608-.7467.2307-.2429 1.9064-1.3114Z" fill="#ffffff"/></g><rect x="1120" y="569" width="120" height="12" rx="6" fill="#D5E6E3"/><rect x="1120" y="609" width="120" height="12" rx="6" fill="#D5E6E3"/><rect x="1120" y="649" width="120" height="12" rx="6" fill="#D5E6E3"/><circle cx="1000" cy="445" r="4" fill="#11181c"/></g><g><rect x="205.0" y="140.0" width="150" height="150" rx="34" fill="#ffffff" filter="url(#softsm)"/><rect x="205.0" y="140.0" width="150" height="150" rx="34" fill="none" stroke="#E3EDEC" stroke-width="2"/><rect x="272.20" y="167.80" width="15.60" height="30.00" rx="7.80" fill="#2EB67D"/><rect x="272.20" y="167.80" width="30.00" height="15.60" rx="7.80" fill="#2EB67D"/><rect x="281.20" y="200.20" width="15.60" height="30.00" rx="7.80" fill="#ECB22E"/><rect x="263.20" y="214.60" width="30.00" height="15.60" rx="7.80" fill="#ECB22E"/><rect x="295.60" y="191.20" width="30.00" height="15.60" rx="7.80" fill="#36C5F0"/><rect x="295.60" y="182.20" width="15.60" height="30.00" rx="7.80" fill="#36C5F0"/><rect x="234.40" y="191.20" width="30.00" height="15.60" rx="7.80" fill="#E01E5A"/><rect x="263.20" y="182.20" width="15.60" height="30.00" rx="7.80" fill="#E01E5A"/><text x="280.0" y="277.0" font-size="16.5" font-weight="600" fill="#AEC4C1" text-anchor="middle">Slack</text></g><g><rect x="493.0" y="98.9" width="150" height="150" rx="34" fill="#ffffff" filter="url(#softsm)"/><rect x="493.0" y="98.9" width="150" height="150" rx="34" fill="none" stroke="#E3EDEC" stroke-width="2"/><g transform="translate(532.00,121.86) scale(3.0000)"><path d="M12 .297c-6.63 0-12 5.373-12 12 0 5.303 3.438 9.8 8.205 11.385.6.113.82-.258.82-.577 0-.285-.01-1.04-.015-2.04-3.338.724-4.042-1.61-4.042-1.61C4.422 18.07 3.633 17.7 3.633 17.7c-1.087-.744.084-.729.084-.729 1.205.084 1.838 1.236 1.838 1.236 1.07 1.835 2.809 1.305 3.495.998.108-.776.417-1.305.76-1.605-2.665-.3-5.466-1.332-5.466-5.93 0-1.31.465-2.38 1.235-3.22-.135-.303-.54-1.523.105-3.176 0 0 1.005-.322 3.3 1.23.96-.267 1.98-.399 3-.405 1.02.006 2.04.138 3 .405 2.28-1.552 3.285-1.23 3.285-1.23.645 1.653.24 2.873.12 3.176.765.84 1.23 1.91 1.23 3.22 0 4.61-2.805 5.625-5.475 5.92.42.36.81 1.096.81 2.22 0 1.606-.015 2.896-.015 3.286 0 .315.21.69.825.57C20.565 22.092 24 17.592 24 12.297c0-6.627-5.373-12-12-12" fill="#1a1a1a"/></g><text x="568.0" y="235.9" font-size="16.5" font-weight="600" fill="#AEC4C1" text-anchor="middle">GitHub</text></g><g><rect x="781.0" y="73.4" width="150" height="150" rx="34" fill="#ffffff" filter="url(#softsm)"/><rect x="781.0" y="73.4" width="150" height="150" rx="34" fill="none" stroke="#E3EDEC" stroke-width="2"/><g transform="translate(820.00,96.43) scale(3.0000)"><path d="M4.459 4.208c.746.606 1.026.56 2.428.466l13.215-.793c.28 0 .047-.28-.046-.326L17.86 1.968c-.42-.326-.981-.7-2.055-.607L3.01 2.295c-.466.046-.56.28-.374.466zm.793 3.08v13.904c0 .747.373 1.027 1.214.98l14.523-.84c.841-.046.935-.56.935-1.167V6.354c0-.606-.233-.933-.748-.887l-15.177.887c-.56.047-.747.327-.747.933zm14.337.745c.093.42 0 .84-.42.888l-.7.14v10.264c-.608.327-1.168.514-1.635.514-.748 0-.935-.234-1.495-.933l-4.577-7.186v6.952L12.21 19s0 .84-1.168.84l-3.222.186c-.093-.186 0-.653.327-.746l.84-.233V9.854L7.822 9.76c-.094-.42.14-1.026.793-1.073l3.456-.233 4.764 7.279v-6.44l-1.215-.139c-.093-.514.28-.887.747-.933zM1.936 1.035l13.31-.98c1.634-.14 2.055-.047 3.082.7l4.249 2.986c.7.513.934.653.934 1.213v16.378c0 1.026-.373 1.634-1.68 1.726l-15.458.934c-.98.047-1.448-.093-1.962-.747l-3.129-4.06c-.56-.747-.793-1.306-.793-1.96V2.667c0-.839.374-1.54 1.447-1.632z" fill="#1a1a1a"/></g><text x="856.0" y="210.4" font-size="16.5" font-weight="600" fill="#AEC4C1" text-anchor="middle">Notion</text></g><g><rect x="1069.0" y="73.4" width="150" height="150" rx="34" fill="#ffffff" filter="url(#softsm)"/><rect x="1069.0" y="73.4" width="150" height="150" rx="34" fill="none" stroke="#E3EDEC" stroke-width="2"/><g transform="translate(1108.00,96.43) scale(3.0000)"><path d="M15.852 8.981h-4.588V0h4.588c2.476 0 4.49 2.014 4.49 4.49s-2.014 4.491-4.49 4.491zM12.735 7.51h3.117c1.665 0 3.019-1.355 3.019-3.019s-1.355-3.019-3.019-3.019h-3.117V7.51zm0 1.471H8.148c-2.476 0-4.49-2.014-4.49-4.49S5.672 0 8.148 0h4.588v8.981zm-4.587-7.51c-1.665 0-3.019 1.355-3.019 3.019s1.354 3.02 3.019 3.02h3.117V1.471H8.148zm4.587 15.019H8.148c-2.476 0-4.49-2.014-4.49-4.49s2.014-4.49 4.49-4.49h4.588v8.98zM8.148 8.981c-1.665 0-3.019 1.355-3.019 3.019s1.355 3.019 3.019 3.019h3.117V8.981H8.148zM8.172 24c-2.489 0-4.515-2.014-4.515-4.49s2.014-4.49 4.49-4.49h4.588v4.441c0 2.503-2.047 4.539-4.563 4.539zm-.024-7.51a3.023 3.023 0 0 0-3.019 3.019c0 1.665 1.365 3.019 3.044 3.019 1.705 0 3.093-1.376 3.093-3.068v-2.97H8.148zm7.704 0h-.098c-2.476 0-4.49-2.014-4.49-4.49s2.014-4.49 4.49-4.49h.098c2.476 0 4.49 2.014 4.49 4.49s-2.014 4.49-4.49 4.49zm-.097-7.509c-1.665 0-3.019 1.355-3.019 3.019s1.355 3.019 3.019 3.019h.098c1.665 0 3.019-1.355 3.019-3.019s-1.355-3.019-3.019-3.019h-.098z" fill="#F24E1E"/></g><text x="1144.0" y="210.4" font-size="16.5" font-weight="600" fill="#AEC4C1" text-anchor="middle">Figma</text></g><g><rect x="1357.0" y="98.9" width="150" height="150" rx="34" fill="#ffffff" filter="url(#softsm)"/><rect x="1357.0" y="98.9" width="150" height="150" rx="34" fill="none" stroke="#E3EDEC" stroke-width="2"/><g transform="translate(1396.00,121.86) scale(3.0000)"><path d="M18.316 5.684H24v12.632h-5.684V5.684zM5.684 24h12.632v-5.684H5.684V24zM18.316 5.684V0H1.895A1.894 1.894 0 0 0 0 1.895v16.421h5.684V5.684h12.632zm-7.207 6.25v-.065c.272-.144.5-.349.687-.617s.279-.595.279-.982c0-.379-.099-.72-.3-1.025a2.05 2.05 0 0 0-.832-.714 2.703 2.703 0 0 0-1.197-.257c-.6 0-1.094.156-1.481.467-.386.311-.65.671-.793 1.078l1.085.452c.086-.249.224-.461.413-.633.189-.172.445-.257.767-.257.33 0 .602.088.816.264a.86.86 0 0 1 .322.703c0 .33-.12.589-.36.778-.24.19-.535.284-.886.284h-.567v1.085h.633c.407 0 .748.109 1.02.327.272.218.407.499.407.843 0 .336-.129.614-.387.832s-.565.327-.924.327c-.351 0-.651-.103-.897-.311-.248-.208-.422-.502-.521-.881l-1.096.452c.178.616.505 1.082.977 1.401.472.319.984.478 1.538.477a2.84 2.84 0 0 0 1.293-.291c.382-.193.684-.458.902-.794.218-.336.327-.72.327-1.149 0-.429-.115-.797-.344-1.105a2.067 2.067 0 0 0-.881-.689zm2.093-1.931l.602.913L15 10.045v5.744h1.187V8.446h-.827l-2.158 1.557zM22.105 0h-3.289v5.184H24V1.895A1.894 1.894 0 0 0 22.105 0zm-3.289 23.5l4.684-4.684h-4.684V23.5zM0 22.105C0 23.152.848 24 1.895 24h3.289v-5.184H0v3.289z" fill="#4285F4"/></g><text x="1432.0" y="235.9" font-size="16.5" font-weight="600" fill="#AEC4C1" text-anchor="middle">Calendar</text></g><g><rect x="1645.0" y="140.0" width="150" height="150" rx="34" fill="#ffffff" filter="url(#softsm)"/><rect x="1645.0" y="140.0" width="150" height="150" rx="34" fill="none" stroke="#E3EDEC" stroke-width="2"/><g transform="translate(1684.00,163.00) scale(3.0000)"><path d="M24 5.457v13.909c0 .904-.732 1.636-1.636 1.636h-3.819V11.73L12 16.64l-6.545-4.91v9.273H1.636A1.636 1.636 0 0 1 0 19.366V5.457c0-2.023 2.309-3.178 3.927-1.964L5.455 4.64 12 9.548l6.545-4.91 1.528-1.145C21.69 2.28 24 3.434 24 5.457z" fill="#EA4335"/></g><text x="1720.0" y="277.0" font-size="16.5" font-weight="600" fill="#AEC4C1" text-anchor="middle">Gmail</text></g><g><rect x="105.0" y="370.0" width="150" height="150" rx="34" fill="#ffffff" filter="url(#softsm)"/><rect x="105.0" y="370.0" width="150" height="150" rx="34" fill="none" stroke="#E3EDEC" stroke-width="2"/><g transform="translate(144.00,393.00) scale(3.0000)"><path d="M2.886 4.18A11.982 11.982 0 0 1 11.99 0C18.624 0 24 5.376 24 12.009c0 3.64-1.62 6.903-4.18 9.105L2.887 4.18ZM1.817 5.626l16.556 16.556c-.524.33-1.075.62-1.65.866L.951 7.277c.247-.575.537-1.126.866-1.65ZM.322 9.163l14.515 14.515c-.71.172-1.443.282-2.195.322L0 11.358a12 12 0 0 1 .322-2.195Zm-.17 4.862 9.823 9.824a12.02 12.02 0 0 1-9.824-9.824Z" fill="#5E6AD2"/></g><text x="180.0" y="507.0" font-size="16.5" font-weight="600" fill="#AEC4C1" text-anchor="middle">Linear</text></g><g><rect x="50.0" y="530.0" width="150" height="150" rx="34" fill="#ffffff" filter="url(#softsm)"/><rect x="50.0" y="530.0" width="150" height="150" rx="34" fill="none" stroke="#E3EDEC" stroke-width="2"/><g transform="translate(89.00,553.00) scale(3.0000)"><path d="M18.78 12.653c-2.882 0-5.22 2.336-5.22 5.22s2.338 5.22 5.22 5.22 5.22-2.34 5.22-5.22-2.336-5.22-5.22-5.22zm-13.56 0c-2.88 0-5.22 2.337-5.22 5.22s2.338 5.22 5.22 5.22 5.22-2.338 5.22-5.22-2.336-5.22-5.22-5.22zm12-6.525c0 2.883-2.337 5.22-5.22 5.22-2.882 0-5.22-2.337-5.22-5.22 0-2.88 2.338-5.22 5.22-5.22 2.883 0 5.22 2.34 5.22 5.22z" fill="#F06A6A"/></g><text x="125.0" y="667.0" font-size="16.5" font-weight="600" fill="#AEC4C1" text-anchor="middle">Asana</text></g><g><rect x="105.0" y="690.0" width="150" height="150" rx="34" fill="#ffffff" filter="url(#softsm)"/><rect x="105.0" y="690.0" width="150" height="150" rx="34" fill="none" stroke="#E3EDEC" stroke-width="2"/><g transform="translate(144.00,713.00) scale(3.0000)"><path d="M18.164 7.93V5.084a2.198 2.198 0 001.267-1.978v-.067A2.2 2.2 0 0017.238.845h-.067a2.2 2.2 0 00-2.193 2.193v.067a2.196 2.196 0 001.252 1.973l.013.006v2.852a6.22 6.22 0 00-2.969 1.31l.012-.01-7.828-6.095A2.497 2.497 0 104.3 4.656l-.012.006 7.697 5.991a6.176 6.176 0 00-1.038 3.446c0 1.343.425 2.588 1.147 3.607l-.013-.02-2.342 2.343a1.968 1.968 0 00-.58-.095h-.002a2.033 2.033 0 102.033 2.033 1.978 1.978 0 00-.1-.595l.005.014 2.317-2.317a6.247 6.247 0 104.782-11.134l-.036-.005zm-.964 9.378a3.206 3.206 0 113.215-3.207v.002a3.206 3.206 0 01-3.207 3.207z" fill="#FF7A59"/></g><text x="180.0" y="827.0" font-size="16.5" font-weight="600" fill="#AEC4C1" text-anchor="middle">HubSpot</text></g><g><rect x="1745.0" y="370.0" width="150" height="150" rx="34" fill="#ffffff" filter="url(#softsm)"/><rect x="1745.0" y="370.0" width="150" height="150" rx="34" fill="none" stroke="#E3EDEC" stroke-width="2"/><g transform="translate(1784.00,393.00) scale(3.0000)"><path d="M11.992 1.966c-.434 0-.87.086-1.28.257L1.779 5.917c-.503.208-.49.908.012 1.116l8.982 3.558a3.266 3.266 0 0 0 2.454 0l8.982-3.558c.503-.196.503-.908.012-1.116l-8.957-3.694a3.255 3.255 0 0 0-1.272-.257zM23.4 8.056a.589.589 0 0 0-.222.045l-10.012 3.877a.612.612 0 0 0-.38.564v8.896a.6.6 0 0 0 .821.552L23.62 18.1a.583.583 0 0 0 .38-.551V8.653a.6.6 0 0 0-.6-.596zM.676 8.095a.644.644 0 0 0-.48.19C.086 8.396 0 8.53 0 8.69v8.355c0 .442.515.737.908.54l6.27-3.006.307-.147 2.969-1.436c.466-.22.43-.908-.061-1.092L.883 8.138a.57.57 0 0 0-.207-.044z" fill="#18BFFF"/></g><text x="1820.0" y="507.0" font-size="16.5" font-weight="600" fill="#AEC4C1" text-anchor="middle">Airtable</text></g><g><rect x="1800.0" y="530.0" width="150" height="150" rx="34" fill="#ffffff" filter="url(#softsm)"/><rect x="1800.0" y="530.0" width="150" height="150" rx="34" fill="none" stroke="#E3EDEC" stroke-width="2"/><g transform="translate(1839.00,553.00) scale(3.0000)"><path d="M24 14.8598c0 2.1729-1.3757 3.974-3.5903 4.6996l-.0995.0318V17.989c1.3777-.5805 2.1869-1.7275 2.1869-3.1291-.0072-2-1.6087-3.6288-3.6082-3.6699h-.5964l-.1432-.5686c-.7025-2.8996-3.2886-4.9489-6.2721-4.97a6.3915 6.3915 0 0 0-5.811 3.664l-.1828.3757-.4175.0437a4.4311 4.4311 0 0 0-3.3052 2.088c-1.2803 2.0856-.6274 4.8143 1.4583 6.0947v1.6897h-.01l-.149-.0675a5.9402 5.9402 0 0 1-3.3658-4.3494c-.5787-3.2291 1.57-6.3161 4.7991-6.8948a7.8766 7.8766 0 0 1 6.9839-4.149c3.4724.025 6.535 2.28 7.5901 5.5883 2.5789.3366 4.5138 2.5245 4.5327 5.1251zm-15.3176-1.322h.5647a.0656.0656 0 0 0 .0457-.1113L7.084 11.2158l-.0007-.0007a.0656.0656 0 0 0-.0927.0007L4.78 13.4265a.0656.0656 0 0 0 .0477.1113h.5566a.0656.0656 0 0 1 .0657.0656v5.0574c0 .6588.534 1.1928 1.1928 1.1928H9.247a.0656.0656 0 0 0 .0457-.1113l-.33-.33a1.1928 1.1928 0 0 1-.348-.839v-4.97a.0676.0676 0 0 1 .0676-.0655zm9.769 2.5466h.5667a.0655.0655 0 0 0 .0457-.1133l-2.2107-2.2087-.0015-.0015a.0636.0636 0 0 0-.0899.0015L14.551 15.971a.0657.0657 0 0 0 .0457.1133h.5567a.0656.0656 0 0 1 .0656.0656v2.5108c0 .6588.534 1.1928 1.1928 1.1928h2.6063a.0655.0655 0 0 0 .0457-.1113l-.33-.33a1.1928 1.1928 0 0 1-.348-.839V16.15a.0656.0656 0 0 1 .0657-.0656zm-4.8844-1.2743h.5646a.0656.0656 0 0 0 .0477-.1114l-2.2107-2.2027-.0006-.0006a.0656.0656 0 0 0-.0928.0006l-2.2087 2.2068a.0656.0656 0 0 0 .0457.1113h.5626a.0676.0676 0 0 1 .0657.0676v3.7791c0 .6588.534 1.1928 1.1928 1.1928h2.5983a.0656.0656 0 0 0 .0477-.1113l-.332-.33a1.193 1.193 0 0 1-.346-.839v-3.6956c0-.0366.0291-.0665.0657-.0676z" fill="#3448C5"/></g><text x="1875.0" y="667.0" font-size="16.5" font-weight="600" fill="#AEC4C1" text-anchor="middle">Cloudinary</text></g><g><rect x="1745.0" y="690.0" width="150" height="150" rx="34" fill="#ffffff" filter="url(#softsm)"/><rect x="1745.0" y="690.0" width="150" height="150" rx="34" fill="none" stroke="#E3EDEC" stroke-width="2"/><g transform="translate(1784.00,713.00) scale(3.0000)"><path d="M16.5088 16.8447c.1475-.5068.0908-.9707-.1553-1.3154-.2246-.3164-.6045-.499-1.0615-.5205l-8.6592-.1123a.1559.1559 0 0 1-.1333-.0713c-.0283-.042-.0351-.0986-.021-.1553.0278-.084.1123-.1484.2036-.1562l8.7359-.1123c1.0351-.0489 2.1601-.8868 2.5537-1.9136l.499-1.3013c.0215-.0561.0293-.1128.0147-.168-.5625-2.5463-2.835-4.4453-5.5499-4.4453-2.5039 0-4.6284 1.6177-5.3876 3.8614-.4927-.3658-1.1187-.5625-1.794-.499-1.2026.119-2.1665 1.083-2.2861 2.2856-.0283.31-.0069.6128.0635.894C1.5683 13.171 0 14.7754 0 16.752c0 .1748.0142.3515.0352.5273.0141.083.0844.1475.1689.1475h15.9814c.0909 0 .1758-.0645.2032-.1553l.12-.4268zm2.7568-5.5634c-.0771 0-.1611 0-.2383.0112-.0566 0-.1054.0415-.127.0976l-.3378 1.1744c-.1475.5068-.0918.9707.1543 1.3164.2256.3164.6055.498 1.0625.5195l1.8437.1133c.0557 0 .1055.0263.1329.0703.0283.043.0351.1074.0214.1562-.0283.084-.1132.1485-.204.1553l-1.921.1123c-1.041.0488-2.1582.8867-2.5527 1.914l-.1406.3585c-.0283.0713.0215.1416.0986.1416h6.5977c.0771 0 .1474-.0489.169-.126.1122-.4082.1757-.837.1757-1.2803 0-2.6025-2.125-4.727-4.7344-4.727" fill="#F38020"/></g><text x="1820.0" y="827.0" font-size="16.5" font-weight="600" fill="#AEC4C1" text-anchor="middle">Cloudflare</text></g><g><rect x="105.0" y="1000.0" width="150" height="150" rx="34" fill="#ffffff" filter="url(#softsm)"/><rect x="105.0" y="1000.0" width="150" height="150" rx="34" fill="none" stroke="#E3EDEC" stroke-width="2"/><defs><linearGradient id="cv1801059" x1="0" y1="0" x2="1" y2="1"><stop offset="0" stop-color="#00C4CC"/><stop offset="1" stop-color="#7D2AE8"/></linearGradient></defs><circle cx="180.0" cy="1059.0" r="44.64" fill="url(#cv1801059)"/><path d="M 198.48 1070.29 A 20.53 20.53 0 1 1 198.48 1047.71" fill="none" stroke="#ffffff" stroke-width="9.82" stroke-linecap="round"/><text x="180.0" y="1137.0" font-size="16.5" font-weight="600" fill="#AEC4C1" text-anchor="middle">Canva</text></g><g><rect x="310.0" y="1023.0" width="150" height="150" rx="34" fill="#ffffff" filter="url(#softsm)"/><rect x="310.0" y="1023.0" width="150" height="150" rx="34" fill="none" stroke="#E3EDEC" stroke-width="2"/><rect x="340.36" y="1037.32" width="89.28" height="89.28" rx="14.40" fill="#FA0F00"/><path d="M 367.00 1101.76 L 380.32 1062.16 L 389.68 1062.16 L 403.00 1101.76 L 392.92 1101.76 L 389.32 1091.32 L 380.68 1091.32 L 377.08 1101.76 Z" fill="#ffffff" fill-rule="evenodd"/><text x="385.0" y="1160.0" font-size="16.5" font-weight="600" fill="#AEC4C1" text-anchor="middle">Adobe</text></g><g><rect x="515.0" y="1042.4" width="150" height="150" rx="34" fill="#ffffff" filter="url(#softsm)"/><rect x="515.0" y="1042.4" width="150" height="150" rx="34" fill="none" stroke="#E3EDEC" stroke-width="2"/><g transform="translate(554.00,1065.43) scale(3.0000)"><path d="m12 1.608 12 20.784H0Z" fill="#1a1a1a"/></g><text x="590.0" y="1179.4" font-size="16.5" font-weight="600" fill="#AEC4C1" text-anchor="middle">Vercel</text></g><g><rect x="720.0" y="1055.4" width="150" height="150" rx="34" fill="#ffffff" filter="url(#softsm)"/><rect x="720.0" y="1055.4" width="150" height="150" rx="34" fill="none" stroke="#E3EDEC" stroke-width="2"/><g transform="translate(759.00,1078.43) scale(3.0000)"><path d="M17.645 16.155a13.013 13.013 0 0 0-4.479-13.287 11.617 11.617 0 0 1 5.815-1.546c.774 0 1.545.075 2.304.226l.32-1.282A13.092 13.092 0 0 0 18.98 0 12.93 12.93 0 0 0 12 2.03 12.933 12.933 0 0 0 5.021 0C4.139 0 3.26.089 2.396.266l.319 1.282a11.83 11.83 0 0 1 2.306-.226 11.64 11.64 0 0 1 5.817 1.544 13.01 13.01 0 0 0 .792 20.877l.375.257.373-.257c2.624-1.801 4.5-4.5 5.27-7.588zm-6.305 5.7A11.687 11.687 0 0 1 7.825 9.519a13.08 13.08 0 0 0 2.457 2.977 3.202 3.202 0 0 1 1.058 2.383zm.661-9.657a11.717 11.717 0 0 1-2.343-2.315 3.23 3.23 0 0 1 0-3.912 11.67 11.67 0 0 1 2.347-2.333c.9.671 1.697 1.468 2.37 2.366a3.197 3.197 0 0 1 0 3.832 11.816 11.816 0 0 1-2.374 2.362zm.659 9.657v-6.976a3.202 3.202 0 0 1 1.06-2.383 13.026 13.026 0 0 0 2.455-2.977 11.694 11.694 0 0 1-3.515 12.336Z" fill="#6933FF"/></g><text x="795.0" y="1192.4" font-size="16.5" font-weight="600" fill="#AEC4C1" text-anchor="middle">CockroachDB</text></g><g><rect x="925.0" y="1060.0" width="150" height="150" rx="34" fill="#ffffff" filter="url(#softsm)"/><rect x="925.0" y="1060.0" width="150" height="150" rx="34" fill="none" stroke="#E3EDEC" stroke-width="2"/><g transform="translate(964.00,1083.00) scale(3.0000)"><path d="M.95 14.184L12 20.403l9.919-5.55v2.21L12 22.662l-10.484-5.96-.565.308v.77L12 24l11.05-6.218v-4.317l-.515-.309L12 19.118l-9.867-5.653v-2.21L12 16.805l11.05-6.218V6.32l-.515-.308L12 11.974 2.647 6.681 12 1.388l7.76 4.368.668-.411v-.566L12 0 .95 6.27v.72L12 13.207l9.919-5.55v2.26L12 15.52 1.516 9.56l-.565.308Z" fill="#FF3621"/></g><text x="1000.0" y="1197.0" font-size="16.5" font-weight="600" fill="#AEC4C1" text-anchor="middle">Databricks</text></g><g><rect x="1130.0" y="1055.4" width="150" height="150" rx="34" fill="#ffffff" filter="url(#softsm)"/><rect x="1130.0" y="1055.4" width="150" height="150" rx="34" fill="none" stroke="#E3EDEC" stroke-width="2"/><g transform="translate(1169.00,1078.43) scale(3.0000)"><path d="M5.676 10.595h2.052v5.244a5.892 5.892 0 0 1-2.052-2.088v-3.156zm18.179 10.836a.504.504 0 0 1 0 .708l-1.716 1.716a.504.504 0 0 1-.708 0l-4.248-4.248a.206.206 0 0 1-.007-.007c-.02-.02-.028-.045-.043-.066a10.736 10.736 0 0 1-6.334 2.065C4.835 21.599 0 16.764 0 10.799S4.835 0 10.8 0s10.799 4.835 10.799 10.8c0 2.369-.772 4.553-2.066 6.333.025.017.052.028.074.05l4.248 4.248zm-5.028-10.632a8.015 8.015 0 1 0-8.028 8.028h.024a8.016 8.016 0 0 0 8.004-8.028zm-4.86 4.98a6.002 6.002 0 0 0 2.04-2.184v-1.764h-2.04v3.948zm-4.5.948c.442.057.887.08 1.332.072.4.025.8.025 1.2 0V7.692H9.468v9.035z" fill="#669DF6"/></g><text x="1205.0" y="1192.4" font-size="16.5" font-weight="600" fill="#AEC4C1" text-anchor="middle">BigQuery</text></g><g><rect x="1335.0" y="1042.4" width="150" height="150" rx="34" fill="#ffffff" filter="url(#softsm)"/><rect x="1335.0" y="1042.4" width="150" height="150" rx="34" fill="none" stroke="#E3EDEC" stroke-width="2"/><text x="1410.0" y="1115.1" font-family="Inter, Arial, sans-serif" font-size="31.9" font-weight="800" fill="#6B5BD2" text-anchor="middle">Carta</text><text x="1410.0" y="1179.4" font-size="16.5" font-weight="600" fill="#AEC4C1" text-anchor="middle">Carta</text></g><g><rect x="1540.0" y="1023.0" width="150" height="150" rx="34" fill="#ffffff" filter="url(#softsm)"/><rect x="1540.0" y="1023.0" width="150" height="150" rx="34" fill="none" stroke="#E3EDEC" stroke-width="2"/><text x="1615.0" y="1095.6" font-family="Inter, Arial, sans-serif" font-size="31.9" font-weight="800" fill="#0E7C66" text-anchor="middle">Daloopa</text><text x="1615.0" y="1160.0" font-size="16.5" font-weight="600" fill="#AEC4C1" text-anchor="middle">Daloopa</text></g><g><rect x="1745.0" y="1000.0" width="150" height="150" rx="34" fill="#ffffff" filter="url(#softsm)"/><rect x="1745.0" y="1000.0" width="150" height="150" rx="34" fill="none" stroke="#E3EDEC" stroke-width="2"/><text x="1820.0" y="1072.7" font-family="Inter, Arial, sans-serif" font-size="31.9" font-weight="800" fill="#D6002A" text-anchor="middle">S&amp;P</text><text x="1820.0" y="1137.0" font-size="16.5" font-weight="600" fill="#AEC4C1" text-anchor="middle">S&amp;P Global</text></g></svg>